<svg id="Layer_1" enable-background="new 0 0 511.949 511.949" height="512" viewBox="0 0 511.949 511.949" width="512" xmlns="http://www.w3.org/2000/svg"><g><g><g><g><path d="m255.975 428.279c-92.692 0-167.833-75.141-167.833-167.833v-139.127c0-51.196 41.503-92.699 92.699-92.699h150.268c51.196 0 92.699 41.503 92.699 92.699v139.127c-.001 92.692-75.142 167.833-167.833 167.833z" fill="#36b8ff"/><path d="m331.109 28.621h-30c51.196 0 92.699 41.503 92.699 92.699v139.127c0 87.635-67.17 159.569-152.833 167.158 4.943.438 9.943.675 15 .675 92.691 0 167.833-75.141 167.833-167.833v-139.128c-.001-51.196-41.503-92.698-92.699-92.698z" fill="#0aa5fa"/><g><g><path d="m342.011 257.822c11.703 7.079 27.215 2.252 32.309-10.442.151-.375.293-.755.426-1.14 8.39-24.218 13.166-48.528 13.166-69.381 0-33.068-12.076-59.047-35.893-77.215-23.143-17.654-57.252-27.376-96.045-27.376s-72.902 9.723-96.045 27.376c-23.817 18.168-35.893 44.147-35.893 77.215 0 20.682 4.696 44.766 12.958 68.788.125.363.258.722.398 1.076 5.049 12.763 20.665 17.592 32.387 10.452l32.385-19.729c32.504-19.801 73.326-19.864 105.892-.165z" fill="#cff5ff"/></g><g><path d="m352.019 99.644c-23.143-17.654-57.252-27.376-96.045-27.376-5.086 0-10.089.172-15 .502 32.546 2.188 60.936 11.535 81.045 26.875 23.817 18.168 35.893 44.147 35.893 77.215 0 20.852-4.776 45.162-13.166 69.381-.133.385-.276.765-.426 1.141-1.334 3.323-3.386 6.101-5.893 8.274l3.584 2.168c11.703 7.079 27.215 2.252 32.309-10.442.151-.375.293-.755.426-1.141 8.39-24.219 13.166-48.529 13.166-69.381 0-33.069-12.076-59.048-35.893-77.216z" fill="#b8f0ff"/></g></g></g><g><g><g><path d="m144.337 348.22c31.175 32.849 42.049 73.143 24.289 89.997-9.031 8.57-39.73 37.704-39.73 37.704-15.817-5.359-33.552-50.519-48.874-66.665-15.228-16.047-59.45-36.294-64.019-52.293 0 0 30.645-29.083 39.73-37.704 17.76-16.855 57.429-3.889 88.604 28.961z" fill="#81f0af"/><ellipse cx="72.45" cy="416.442" fill="#36b8ff" rx="44.333" ry="82" transform="matrix(.725 -.688 .688 .725 -266.769 164.245)"/><path d="m104.607 385.924c-27.449-28.923-61.475-42.42-81.341-33.732 16.554 4.915 35.099 16.616 51.341 33.732 31.175 32.849 42.049 73.143 24.289 89.997-2.123 2.014-4.566 3.591-7.263 4.77 15.219 4.518 28.756 3.303 37.263-4.77 17.76-16.855 6.886-57.148-24.289-89.997z" fill="#0aa5fa"/></g></g></g><g><g><g><path d="m367.612 348.22c-31.175 32.849-42.049 73.143-24.289 89.997 9.031 8.57 39.73 37.704 39.73 37.704 15.817-5.359 33.552-50.519 48.874-66.665 15.228-16.047 59.45-36.294 64.019-52.293 0 0-30.645-29.083-39.73-37.704-17.76-16.855-57.429-3.889-88.604 28.961z" fill="#81f0af"/><ellipse cx="439.499" cy="416.442" fill="#36b8ff" rx="82" ry="44.333" transform="matrix(.688 -.725 .725 .688 -165.109 448.569)"/><path d="m495.946 356.962c-8.507-8.073-22.044-9.288-37.263-4.77 2.697 1.179 5.14 2.756 7.263 4.77 17.76 16.854 6.885 57.148-24.289 89.997-16.243 17.115-34.787 28.817-51.341 33.732 19.866 8.689 53.893-4.808 81.341-33.732 31.174-32.849 42.049-73.142 24.289-89.997z" fill="#0aa5fa"/></g></g></g></g><g><g><path d="m255.975 326.121 47.859 47.859c12.248-12.248 19.824-29.169 19.824-47.859z" fill="#b8f0ff"/><path d="m303.834 278.261c-12.248-12.248-29.169-19.824-47.859-19.824v67.683z" fill="#b8f0ff"/><path d="m255.975 326.121v-.001z" style="fill:#c2d8ed;stroke:#000;stroke-width:15;stroke-linecap:round;stroke-linejoin:round;stroke-miterlimit:10"/><path d="m255.975 258.437c-18.69 0-35.611 7.576-47.859 19.824l47.859 47.859z" fill="#cff5ff"/><path d="m255.975 326.121v-.001z" style="fill:#c2d8ed;stroke:#000;stroke-width:15;stroke-linecap:round;stroke-linejoin:round;stroke-miterlimit:10"/><path d="m255.975 326.121h67.684c0-18.69-7.576-35.611-19.824-47.859z" fill="#cff5ff"/><path d="m255.975 326.121-47.859 47.859c12.248 12.248 29.169 19.824 47.859 19.824z" fill="#b8f0ff"/><path d="m255.975 326.12-47.859-47.859c-12.248 12.248-19.824 29.169-19.824 47.859z" fill="#b8f0ff"/><g fill="#cff5ff"><path d="m255.975 326.121v67.683c18.69 0 35.611-7.576 47.859-19.824z"/><path d="m188.291 326.121c0 18.69 7.576 35.611 19.824 47.859l47.859-47.859z"/></g></g><path d="m255.975 359.5c-18.404 0-33.379-14.974-33.379-33.379 0-18.407 14.974-33.381 33.379-33.381s33.379 14.974 33.379 33.381c-.001 18.405-14.975 33.379-33.379 33.379z" fill="#0094e6"/></g></g><g fill="#060606"><path d="m353.728 268.597c12.519 0 23.977-8.069 28.104-19.901 8.884-25.645 13.579-50.485 13.579-71.836 0-35.532-13.069-63.517-38.844-83.178-24.441-18.646-60.167-28.914-100.594-28.914s-76.152 10.269-100.594 28.914c-25.774 19.661-38.844 47.646-38.844 83.178 0 21.173 4.622 45.803 13.366 71.229 6.096 17.667 27.917 25.155 43.777 15.492l32.387-19.729c30.229-18.416 67.82-18.475 98.107-.153l33.954 20.541c4.769 2.883 10.163 4.357 15.602 4.357zm-155.464-37.556-32.387 19.729c-7.737 4.713-18.846 1.101-21.789-7.562-8.211-23.873-12.551-46.816-12.551-66.349 0-30.605 11.083-54.578 32.941-71.252 21.844-16.663 54.337-25.84 91.496-25.84s69.652 9.177 91.496 25.84c21.858 16.674 32.941 40.646 32.941 71.252 0 19.699-4.41 42.842-12.75 66.918-2.993 8.64-13.999 12.329-21.77 7.628l-33.954-20.541c-35.091-21.228-78.648-21.16-113.673.177z"/><path d="m154.628 174.347 54.085-54.085c6.856-6.859-3.748-17.462-10.607-10.607l-54.085 54.085c-6.857 6.858 3.747 17.462 10.607 10.607z"/><path d="m262.217 93.551-115.158 115.158c-6.856 6.859 3.748 17.462 10.607 10.607l115.158-115.158c6.857-6.859-3.748-17.462-10.607-10.607z"/><path d="m364.586 215.974c6.856-6.859-3.748-17.462-10.607-10.607l-17.026 17.026c-6.856 6.859 3.748 17.462 10.607 10.607z"/><path d="m43.769 378.72c-9.652 0-9.668 15 0 15 9.652 0 9.668-15 0-15z"/><path d="m72.45 408.942c-9.652 0-9.668 15 0 15 9.651 0 9.667-15 0-15z"/><path d="m101.131 439.163c-9.652 0-9.668 15 0 15 9.651 0 9.667-15 0-15z"/><path d="m501.109 351.522-39.73-37.703c-8.623-8.184-21.113-11.106-35.854-8.581 3.836-14.554 5.782-29.571 5.782-44.791v-139.128c0-55.25-44.949-100.199-100.199-100.199h-150.267c-55.25 0-100.199 44.949-100.199 100.199v27.645c0 9.697 15 9.697 15 0v-27.645c0-46.979 38.22-85.199 85.199-85.199h150.268c46.979 0 85.199 38.221 85.199 85.199v139.127c0 17.034-2.661 33.784-7.896 49.813-37.276 15.187-72.39 53-79.943 93.213-22.304 11.318-47.305 17.306-72.494 17.306s-50.19-5.988-72.494-17.306c-4.293-22.851-17.907-43.77-33.703-60.416-14.089-14.846-30.297-26.303-46.244-32.799-5.235-16.027-7.892-32.764-7.892-49.812v-70.149c0-9.697-15-9.697-15 0v70.149c0 15.232 1.943 30.24 5.779 44.79-14.739-2.523-27.227.4-35.849 8.582l-39.732 37.705c-21.082 20.008-10.534 64.198 24.011 100.601 23.533 24.796 51.249 38.658 73.197 38.658 10.273 0 19.288-3.041 26.011-9.42l39.729-37.704c6.123-5.811 9.689-13.713 10.624-23.12 22.38 9.991 46.893 15.241 71.562 15.241 24.668 0 49.182-5.25 71.562-15.241.934 9.407 4.501 17.309 10.624 23.12l39.729 37.704c6.62 6.281 15.514 9.468 25.958 9.468 6.408 0 13.401-1.2 20.807-3.621 17.898-5.85 36.523-18.311 52.443-35.085 34.547-36.403 45.094-80.593 24.012-100.601zm-455.377 90.275c-30.676-32.324-37.469-67.149-24.566-79.395 3.715-3.526 9.214-5.323 15.895-5.323 16.521 0 40.264 10.991 62.106 34.008 30.677 32.324 37.47 67.148 24.566 79.394-12.901 12.247-47.325 3.64-78.001-28.684zm117.731-9.021-18.625 17.675c-.939-21.052-13.158-46.897-34.79-69.691s-46.803-36.348-67.777-38.386l18.626-17.675c6.403-6.078 17.985-6.979 31.778-2.471 33.768 11.035 65.664 44.666 74.917 78.942 3.78 14.009 2.275 25.529-4.129 31.606zm302.754 9.021c-14.234 15-30.65 26.063-46.223 31.153-13.793 4.509-25.375 3.607-31.778-2.47-12.408-11.776-5.895-41.185 15.153-68.406 5.931-7.673-5.935-16.847-11.867-9.176-15.339 19.839-23.681 40.318-24.451 57.496l-18.564-17.618c-6.404-6.077-7.909-17.598-4.129-31.605 4.27-15.816 14.46-32.788 28.695-47.788s30.65-26.064 46.222-31.154c13.793-4.507 25.375-3.606 31.779 2.471l18.665 17.713c-14.817 1.426-31.869 8.596-48.574 21.144-7.752 5.825 1.254 17.816 9.01 11.994 24.089-18.097 49.589-23.628 60.629-13.147 12.901 12.243 6.109 47.069-24.567 79.393z"/><path d="m468.18 378.72c-9.652 0-9.668 15 0 15 9.652 0 9.668-15 0-15z"/><path d="m439.499 408.942c-9.652 0-9.668 15 0 15 9.652 0 9.668-15 0-15z"/><path d="m410.819 439.163c-9.652 0-9.668 15 0 15 9.651 0 9.667-15 0-15z"/><path d="m308.473 272.373c-13.561-13.249-32.088-21.436-52.499-21.436s-38.938 8.187-52.499 21.436c-.229.181-.453.373-.665.584-.212.212-.404.436-.585.666-13.248 13.561-21.435 32.087-21.435 52.498s8.187 38.937 21.435 52.498c.181.23.373.454.585.666s.435.403.665.584c13.561 13.249 32.088 21.436 52.499 21.436s38.937-8.187 52.499-21.436c.229-.181.453-.373.665-.584.212-.212.404-.436.585-.666 13.248-13.561 21.435-32.087 21.435-52.498s-8.187-38.937-21.435-52.498c-.181-.23-.373-.454-.585-.666-.212-.211-.436-.403-.665-.584zm7.201 46.247h-19.523c-1.062-5.7-3.304-10.988-6.472-15.597l13.795-13.795c6.486 8.333 10.827 18.405 12.2 29.392zm-12.2 44.392-13.794-13.794c3.168-4.609 5.411-9.898 6.472-15.598h19.522c-1.373 10.988-5.714 21.059-12.2 29.392zm-107.199-29.392h19.522c1.062 5.7 3.304 10.989 6.472 15.598l-13.794 13.794c-6.486-8.333-10.827-18.404-12.2-29.392zm12.2-44.392 13.795 13.795c-3.168 4.609-5.411 9.897-6.472 15.597h-19.523c1.373-10.987 5.714-21.059 12.2-29.392zm47.5 62.772c-14.27 0-25.879-11.608-25.879-25.878 0-14.271 11.609-25.882 25.879-25.882s25.879 11.61 25.879 25.882c-.001 14.27-11.61 25.878-25.879 25.878zm23.097-59.585c-4.609-3.169-9.897-5.411-15.598-6.473v-19.521c10.988 1.373 21.059 5.714 29.392 12.2zm-30.597-6.473c-5.7 1.062-10.989 3.305-15.598 6.473l-13.794-13.794c8.333-6.486 18.404-10.827 29.392-12.2zm-15.598 73.884c4.609 3.169 9.898 5.411 15.598 6.473v19.521c-10.988-1.373-21.059-5.714-29.392-12.2zm30.598 6.472c5.7-1.062 10.989-3.304 15.598-6.473l13.794 13.794c-8.333 6.486-18.404 10.827-29.392 12.2z"/></g></g></svg>